{"title":"Blonde Ambition (2007) 720p mHD AAC EN-NL-SUB x264-[MULVAcoded]","uid":12074924,"size":691464451,"categoryP":"video","categoryS":"hd___movies","magnet":"?xt=urn:btih:b33674bdc3221d54ba451e1bfd06be8835454181&amp;dn=Blonde+Ambition+%282007%29+720p+mHD+AAC+EN-NL-SUB+x264-%5BMULVAcoded%5D&amp;tr=udp%3A%2F%2Ftracker.openbittorrent.com%3A80&amp;tr=udp%3A%2F%2Fopen.demonii.com%3A1337&amp;tr=udp%3A%2F%2Ftracker.coppersurfer.tk%3A6969&amp;tr=udp%3A%2F%2Fexodus.desync.com%3A6969","seeders":0,"leechers":1,"uploader":"Mulva1989","files":2,"time":1435614093,"description":"Blonde Ambition (2007) 720p mHD AAC EN-NL-SUB x264-[MULVAcoded]\n\nA young professional woman (Simpson) unwittingly becomes the pawn of two business executives in their bid to oust the head of a mega-conglomerate.\n\nScreens @ &lt;a href=&quot;\nhttps://yuq.me/users/50/321/cOG80NSHMt.jpg&quot; rel=&quot;nofollow&quot; target=&quot;_NEW&quot;&gt;\nhttps://yuq.me/users/50/321/cOG80NSHMt.jpg&lt;/a&gt; &lt;a href=&quot;\nhttps://yuq.me/users/50/321/Rt2qz7v1hp.jpg&quot; rel=&quot;nofollow&quot; target=&quot;_NEW&quot;&gt;\nhttps://yuq.me/users/50/321/Rt2qz7v1hp.jpg&lt;/a&gt; &lt;a href=&quot;\nhttps://yuq.me/users/50/321/0QvMPwIx6Z.jpg&quot; rel=&quot;nofollow&quot; target=&quot;_NEW&quot;&gt;\nhttps://yuq.me/users/50/321/0QvMPwIx6Z.jpg&lt;/a&gt;\n\nVideo\nID : 1\nFormat : AVC\nFormat/Info : Advanced Video Codec\nFormat profile : &lt;a class=&quot;__cf_email__&quot; href=&quot;/cdn-cgi/l/email-protection&quot; data-cfemail=&quot;a9e1c0cec1e9e59c8799&quot;&gt;[email&amp;#160;protected]&lt;/a&gt;&lt;script data-cfhash='f9e31' type=&quot;text/javascript&quot;&gt;\n/* &lt;![CDATA[ */!function(){try{var t=&quot;currentScript&quot;in document?document.currentScript:function(){for(var t=document.getElementsByTagName(&quot;script&quot;),e=t.length;e--;)if(t[e].getAttribute(&quot;data-cfhash&quot;))return t[e]}();if(t&amp;&amp;t.previousSibling){var e,r,n,i,c=t.previousSibling,a=c.getAttribute(&quot;data-cfemail&quot;);if(a){for(e=&quot;&quot;,r=parseInt(a.substr(0,2),16),n=2;a.length-n;n+=2)i=parseInt(a.substr(n,2),16)^r,e+=String.fromCharCode(i);e=document.createTextNode(e),c.parentNode.replaceChild(e,c)}t.parentNode.removeChild(t);}}catch(u){}}()/* ]]&gt; */&lt;/script&gt;\nFormat settings, CABAC : Yes\nFormat settings, ReFrames : 16 frames\nCodec ID : avc1\nCodec ID/Info : Advanced Video Coding\nDuration : 1h 32mn\nBit rate : 894 Kbps\nWidth : 1 280 pixels\nHeight : 688 pixels\nDisplay aspect ratio : 1.85:1\nFrame rate mode : Variable\nFrame rate : 23.976 fps\nMinimum frame rate : 23.968 fps\nMaximum frame rate : 23.981 fps\nColor space : YUV\nChroma subsampling : 4:2:0\nBit depth : 8 bits\nScan type : Progressive\nBits/(Pixel*Frame) : 0.042\nStream size : 592 MiB (90%)\nWriting library : x264 core 130 r2273 b3065e6\nEncoding settings : cabac=1 / ref=16 / deblock=1:0:0 / analyse=0x3:0x113 / me=umh / subme=8 / psy=1 / psy_rd=1.00:0.00 / mixed_ref=1 / me_range=16 / chroma_me=1 / trellis=1 / 8x8dct=1 / cqm=0 / deadzone=21,11 / fast_pskip=1 / chroma_qp_offset=-2 / threads=6 / lookahead_threads=3 / sliced_threads=0 / nr=0 / decimate=1 / interlaced=0 / bluray_compat=0 / constrained_intra=0 / bframes=16 / b_pyramid=2 / b_adapt=2 / b_bias=0 / direct=3 / weightb=1 / open_gop=0 / weightp=2 / keyint=240 / keyint_min=24 / scenecut=40 / intra_refresh=0 / rc_lookahead=50 / rc=crf / mbtree=1 / crf=26.0 / qcomp=0.60 / qpmin=0 / qpmax=69 / qpstep=4 / ip_ratio=1.40 / aq=1:1.00\nEncoded date : UTC 2015-06-18 20:18:25\nTagged date : UTC 2015-06-19 02:26:23\nColor primaries : BT.709\nTransfer characteristics : BT.709\nMatrix coefficients : BT.709\nColor range : Limited\n\nAudio\nID : 2\nFormat : AAC\nFormat/Info : Advanced Audio Codec\nFormat profile : LC\nCodec ID : 40\nDuration : 1h 32mn\nBit rate mode : Variable\nBit rate : 96.0 Kbps\nMaximum bit rate : 117 Kbps\nChannel(s) : 2 channels\nChannel positions : Front: L R\nSampling rate : 48.0 KHz\nCompression mode : Lossy\nStream size : 63.6 MiB (10%)\nTitle : Stereo\nLanguage : English\nEncoded date : UTC 2015-06-18 20:18:25\nTagged date : UTC 2015-06-19 02:26:19\n\nText #1\nID : 3\nFormat : Timed Text\nMuxing mode : sbtl\nCodec ID : tx3g\nDuration : 1h 29mn\nBit rate mode : Variable\nBit rate : 80 bps\nStream size : 52.3 KiB (0%)\nLanguage : English\nEncoded date : UTC 2015-06-18 20:18:25\nTagged date : UTC 2015-06-19 02:23:19\n\nText #2\nID : 4\nFormat : Timed Text\nMuxing mode : sbtl\nCodec ID : tx3g\nDuration : 1h 29mn\nBit rate mode : Variable\nBit rate : 82 bps\nStream size : 53.5 KiB (0%)\nLanguage : Dutch\nEncoded date : UTC 2015-06-18 20:18:25\nTagged date : UTC 2015-06-19 02:23:19","torrent":{"xt":"urn:btih:b33674bdc3221d54ba451e1bfd06be8835454181","amp;dn":"Blonde+Ambition+%282007%29+720p+mHD+AAC+EN-NL-SUB+x264-%5BMULVAcoded%5D","amp;tr":["udp%3A%2F%2Ftracker.openbittorrent.com%3A80","udp%3A%2F%2Fopen.demonii.com%3A1337","udp%3A%2F%2Ftracker.coppersurfer.tk%3A6969","udp%3A%2F%2Fexodus.desync.com%3A6969"],"infoHash":"b33674bdc3221d54ba451e1bfd06be8835454181","infoHashBuffer":{"type":"Buffer","data":[179,54,116,189,195,34,29,84,186,69,30,27,253,6,190,136,53,69,65,129]},"announce":[],"urlList":[]}}